<mxfile host="app.diagrams.net" modified="2024-02-14T17:11:23.677Z" agent="Mozilla/5.0 (X11; Linux x86_64) AppleWebKit/537.36 (KHTML, like Gecko) Chrome/120.0.0.0 Safari/537.36" etag="jei8nuByzIJhAeWKHupO" version="23.1.1" type="device">
  <diagram name="Page-1" id="Bkk2WcprNAcskjHjB9KG">
    <mxGraphModel dx="2930" dy="1057" grid="1" gridSize="10" guides="1" tooltips="1" connect="1" arrows="1" fold="1" page="1" pageScale="1" pageWidth="827" pageHeight="1169" math="0" shadow="0">
      <root>
        <mxCell id="0" />
        <mxCell id="1" parent="0" />
        <mxCell id="v6ihOeDoag_4FhwwPe3u-24" style="edgeStyle=orthogonalEdgeStyle;rounded=0;orthogonalLoop=1;jettySize=auto;html=1;" edge="1" parent="1" source="v6ihOeDoag_4FhwwPe3u-10" target="v6ihOeDoag_4FhwwPe3u-11">
          <mxGeometry relative="1" as="geometry" />
        </mxCell>
        <mxCell id="v6ihOeDoag_4FhwwPe3u-10" value="Amazon S3" style="sketch=0;outlineConnect=0;fontColor=#232F3E;gradientColor=none;strokeColor=#ffffff;fillColor=#232F3E;dashed=0;verticalLabelPosition=middle;verticalAlign=bottom;align=center;html=1;whiteSpace=wrap;fontSize=10;fontStyle=1;spacing=3;shape=mxgraph.aws4.productIcon;prIcon=mxgraph.aws4.s3;" vertex="1" parent="1">
          <mxGeometry x="-80" y="260" width="80" height="100" as="geometry" />
        </mxCell>
        <mxCell id="v6ihOeDoag_4FhwwPe3u-14" style="edgeStyle=orthogonalEdgeStyle;rounded=0;orthogonalLoop=1;jettySize=auto;html=1;" edge="1" parent="1" source="v6ihOeDoag_4FhwwPe3u-11" target="v6ihOeDoag_4FhwwPe3u-12">
          <mxGeometry relative="1" as="geometry" />
        </mxCell>
        <mxCell id="v6ihOeDoag_4FhwwPe3u-15" style="edgeStyle=orthogonalEdgeStyle;rounded=0;orthogonalLoop=1;jettySize=auto;html=1;" edge="1" parent="1">
          <mxGeometry relative="1" as="geometry">
            <mxPoint x="145" y="310" as="sourcePoint" />
            <mxPoint x="255" y="535" as="targetPoint" />
            <Array as="points">
              <mxPoint x="195" y="310" />
              <mxPoint x="195" y="535" />
            </Array>
          </mxGeometry>
        </mxCell>
        <mxCell id="v6ihOeDoag_4FhwwPe3u-11" value="Amazon SNS" style="sketch=0;outlineConnect=0;fontColor=#232F3E;gradientColor=none;strokeColor=#ffffff;fillColor=#232F3E;dashed=0;verticalLabelPosition=middle;verticalAlign=bottom;align=center;html=1;whiteSpace=wrap;fontSize=10;fontStyle=1;spacing=3;shape=mxgraph.aws4.productIcon;prIcon=mxgraph.aws4.sns;" vertex="1" parent="1">
          <mxGeometry x="60" y="260" width="80" height="100" as="geometry" />
        </mxCell>
        <mxCell id="v6ihOeDoag_4FhwwPe3u-12" value="Amazon SQS" style="sketch=0;outlineConnect=0;fontColor=#232F3E;gradientColor=none;strokeColor=#ffffff;fillColor=#232F3E;dashed=0;verticalLabelPosition=middle;verticalAlign=bottom;align=center;html=1;whiteSpace=wrap;fontSize=10;fontStyle=1;spacing=3;shape=mxgraph.aws4.productIcon;prIcon=mxgraph.aws4.sqs;" vertex="1" parent="1">
          <mxGeometry x="250" y="170" width="80" height="100" as="geometry" />
        </mxCell>
        <mxCell id="v6ihOeDoag_4FhwwPe3u-62" style="edgeStyle=orthogonalEdgeStyle;rounded=0;orthogonalLoop=1;jettySize=auto;html=1;" edge="1" parent="1" target="v6ihOeDoag_4FhwwPe3u-57">
          <mxGeometry relative="1" as="geometry">
            <mxPoint x="306.5499999999999" y="739.9999999999999" as="targetPoint" />
            <mxPoint x="273.43" y="579.64" as="sourcePoint" />
            <Array as="points">
              <mxPoint x="299" y="580" />
            </Array>
          </mxGeometry>
        </mxCell>
        <mxCell id="v6ihOeDoag_4FhwwPe3u-64" value="update the db" style="edgeLabel;html=1;align=center;verticalAlign=middle;resizable=0;points=[];" vertex="1" connectable="0" parent="v6ihOeDoag_4FhwwPe3u-62">
          <mxGeometry x="0.0422" y="-3" relative="1" as="geometry">
            <mxPoint x="-1" y="-3" as="offset" />
          </mxGeometry>
        </mxCell>
        <mxCell id="v6ihOeDoag_4FhwwPe3u-13" value="AWS Lambda" style="sketch=0;outlineConnect=0;fontColor=#232F3E;gradientColor=none;strokeColor=#ffffff;fillColor=#232F3E;dashed=0;verticalLabelPosition=middle;verticalAlign=bottom;align=center;html=1;whiteSpace=wrap;fontSize=10;fontStyle=1;spacing=3;shape=mxgraph.aws4.productIcon;prIcon=mxgraph.aws4.lambda;" vertex="1" parent="1">
          <mxGeometry x="260" y="485" width="80" height="100" as="geometry" />
        </mxCell>
        <mxCell id="v6ihOeDoag_4FhwwPe3u-30" value="" style="group;fillColor=#FFFFFF;" vertex="1" connectable="0" parent="1">
          <mxGeometry x="414" y="70" width="240" height="110" as="geometry" />
        </mxCell>
        <mxCell id="v6ihOeDoag_4FhwwPe3u-27" value="Amazon CloudWatch" style="sketch=0;outlineConnect=0;fontColor=#232F3E;gradientColor=none;strokeColor=#ffffff;fillColor=#232F3E;dashed=0;verticalLabelPosition=middle;verticalAlign=bottom;align=center;html=1;whiteSpace=wrap;fontSize=10;fontStyle=1;spacing=3;shape=mxgraph.aws4.productIcon;prIcon=mxgraph.aws4.cloudwatch;" vertex="1" parent="v6ihOeDoag_4FhwwPe3u-30">
          <mxGeometry width="80" height="110" as="geometry" />
        </mxCell>
        <mxCell id="24U_V7g4oyIjtlmwHgdw-9" value="&lt;font style=&quot;font-size: 10px;&quot;&gt;when q.size &amp;gt; 0, spin up EC2&lt;br&gt;when q.size = 0, terminate EC2&lt;/font&gt;" style="rounded=0;whiteSpace=wrap;html=1;align=left;" parent="v6ihOeDoag_4FhwwPe3u-30" vertex="1">
          <mxGeometry x="90" y="63.5" width="150" height="40" as="geometry" />
        </mxCell>
        <mxCell id="v6ihOeDoag_4FhwwPe3u-31" value="" style="group;fillColor=#FFFFFF;" vertex="1" connectable="0" parent="1">
          <mxGeometry x="414" y="260" width="209" height="200" as="geometry" />
        </mxCell>
        <mxCell id="v6ihOeDoag_4FhwwPe3u-25" value="" style="rounded=0;whiteSpace=wrap;html=1;points=[[0,0],[0.25,0],[0.5,0],[0.75,0],[1,0],[1,0.25],[1,0.5],[1,0.75],[1,1],[0.75,1],[0.5,1],[0.25,1],[0,1],[0,0.75],[0,0.5],[0,0.25]];outlineConnect=0;gradientColor=none;fontStyle=0;container=1;pointerEvents=0;collapsible=0;recursiveResize=0;shape=mxgraph.aws4.groupCenter;grIcon=mxgraph.aws4.group_auto_scaling_group;grStroke=1;strokeColor=#D86613;fillColor=none;verticalAlign=top;fontColor=#D86613;dashed=1;spacingTop=25;" vertex="1" parent="v6ihOeDoag_4FhwwPe3u-31">
          <mxGeometry width="209" height="200" as="geometry" />
        </mxCell>
        <mxCell id="24U_V7g4oyIjtlmwHgdw-20" value="" style="group" parent="v6ihOeDoag_4FhwwPe3u-31" vertex="1" connectable="0">
          <mxGeometry x="19.40714285714286" y="30" width="170.18571428571428" height="160" as="geometry" />
        </mxCell>
        <mxCell id="24U_V7g4oyIjtlmwHgdw-19" value="" style="rounded=0;whiteSpace=wrap;html=1;" parent="24U_V7g4oyIjtlmwHgdw-20" vertex="1">
          <mxGeometry width="170.18571428571428" height="160" as="geometry" />
        </mxCell>
        <mxCell id="24U_V7g4oyIjtlmwHgdw-15" value="" style="outlineConnect=0;dashed=0;verticalLabelPosition=bottom;verticalAlign=top;align=center;html=1;shape=mxgraph.aws3.ec2;fillColor=#F58534;gradientColor=none;" parent="24U_V7g4oyIjtlmwHgdw-20" vertex="1">
          <mxGeometry x="44.18498344573882" y="10.19108280254777" width="74.50190067443286" height="94.77707006369427" as="geometry" />
        </mxCell>
        <mxCell id="24U_V7g4oyIjtlmwHgdw-18" value="&lt;br&gt;ec2, installed ffmpeg&lt;br&gt;for video&amp;nbsp;processing" style="text;html=1;align=center;verticalAlign=middle;resizable=0;points=[];autosize=1;strokeColor=none;fillColor=none;" parent="24U_V7g4oyIjtlmwHgdw-20" vertex="1">
          <mxGeometry x="21.78571919068057" y="89.68152866242038" width="130" height="60" as="geometry" />
        </mxCell>
        <mxCell id="v6ihOeDoag_4FhwwPe3u-33" style="edgeStyle=orthogonalEdgeStyle;rounded=0;orthogonalLoop=1;jettySize=auto;html=1;" edge="1" parent="1" source="v6ihOeDoag_4FhwwPe3u-27" target="v6ihOeDoag_4FhwwPe3u-12">
          <mxGeometry relative="1" as="geometry" />
        </mxCell>
        <mxCell id="v6ihOeDoag_4FhwwPe3u-34" style="edgeStyle=orthogonalEdgeStyle;rounded=0;orthogonalLoop=1;jettySize=auto;html=1;" edge="1" parent="1" source="v6ihOeDoag_4FhwwPe3u-25" target="v6ihOeDoag_4FhwwPe3u-12">
          <mxGeometry relative="1" as="geometry" />
        </mxCell>
        <mxCell id="v6ihOeDoag_4FhwwPe3u-39" style="edgeStyle=orthogonalEdgeStyle;rounded=0;orthogonalLoop=1;jettySize=auto;html=1;" edge="1" parent="1" source="v6ihOeDoag_4FhwwPe3u-36" target="v6ihOeDoag_4FhwwPe3u-38">
          <mxGeometry relative="1" as="geometry" />
        </mxCell>
        <mxCell id="v6ihOeDoag_4FhwwPe3u-67" style="edgeStyle=orthogonalEdgeStyle;rounded=0;orthogonalLoop=1;jettySize=auto;html=1;entryX=0.996;entryY=0.381;entryDx=0;entryDy=0;entryPerimeter=0;" edge="1" parent="1" target="v6ihOeDoag_4FhwwPe3u-55">
          <mxGeometry relative="1" as="geometry">
            <mxPoint x="777" y="420" as="sourcePoint" />
            <mxPoint x="486.03999999999996" y="808.1700000000001" as="targetPoint" />
            <Array as="points">
              <mxPoint x="777" y="805" />
            </Array>
          </mxGeometry>
        </mxCell>
        <mxCell id="v6ihOeDoag_4FhwwPe3u-68" value="update the db" style="edgeLabel;html=1;align=center;verticalAlign=middle;resizable=0;points=[];" vertex="1" connectable="0" parent="v6ihOeDoag_4FhwwPe3u-67">
          <mxGeometry x="-0.4442" y="-1" relative="1" as="geometry">
            <mxPoint as="offset" />
          </mxGeometry>
        </mxCell>
        <mxCell id="v6ihOeDoag_4FhwwPe3u-36" value="Amazon S3" style="sketch=0;outlineConnect=0;fontColor=#232F3E;gradientColor=none;strokeColor=#ffffff;fillColor=#232F3E;dashed=0;verticalLabelPosition=middle;verticalAlign=bottom;align=center;html=1;whiteSpace=wrap;fontSize=10;fontStyle=1;spacing=3;shape=mxgraph.aws4.productIcon;prIcon=mxgraph.aws4.s3;" vertex="1" parent="1">
          <mxGeometry x="730" y="310" width="80" height="100" as="geometry" />
        </mxCell>
        <mxCell id="v6ihOeDoag_4FhwwPe3u-37" style="edgeStyle=orthogonalEdgeStyle;rounded=0;orthogonalLoop=1;jettySize=auto;html=1;" edge="1" parent="1" source="v6ihOeDoag_4FhwwPe3u-25" target="v6ihOeDoag_4FhwwPe3u-36">
          <mxGeometry relative="1" as="geometry" />
        </mxCell>
        <mxCell id="v6ihOeDoag_4FhwwPe3u-43" style="edgeStyle=orthogonalEdgeStyle;rounded=0;orthogonalLoop=1;jettySize=auto;html=1;" edge="1" parent="1" source="v6ihOeDoag_4FhwwPe3u-42">
          <mxGeometry relative="1" as="geometry">
            <mxPoint x="1000" y="360" as="targetPoint" />
          </mxGeometry>
        </mxCell>
        <mxCell id="v6ihOeDoag_4FhwwPe3u-45" value="dash&amp;nbsp;&amp;nbsp;&lt;br&gt;&amp;nbsp; streaming&amp;nbsp;&amp;nbsp;" style="edgeLabel;html=1;align=center;verticalAlign=middle;resizable=0;points=[];" vertex="1" connectable="0" parent="v6ihOeDoag_4FhwwPe3u-43">
          <mxGeometry x="-0.178" y="3" relative="1" as="geometry">
            <mxPoint as="offset" />
          </mxGeometry>
        </mxCell>
        <mxCell id="v6ihOeDoag_4FhwwPe3u-38" value="Amazon Cloudfront" style="sketch=0;outlineConnect=0;fontColor=#232F3E;gradientColor=none;strokeColor=#ffffff;fillColor=#232F3E;dashed=0;verticalLabelPosition=middle;verticalAlign=bottom;align=center;html=1;whiteSpace=wrap;fontSize=10;fontStyle=1;spacing=3;shape=mxgraph.aws4.productIcon;prIcon=mxgraph.aws4.cloudfront;" vertex="1" parent="1">
          <mxGeometry x="910" y="305" width="80" height="110" as="geometry" />
        </mxCell>
        <mxCell id="v6ihOeDoag_4FhwwPe3u-41" style="edgeStyle=orthogonalEdgeStyle;rounded=0;orthogonalLoop=1;jettySize=auto;html=1;" edge="1" parent="1" source="v6ihOeDoag_4FhwwPe3u-40" target="v6ihOeDoag_4FhwwPe3u-10">
          <mxGeometry relative="1" as="geometry" />
        </mxCell>
        <mxCell id="v6ihOeDoag_4FhwwPe3u-69" value="upload to&lt;br&gt;presigned&amp;nbsp;&lt;br&gt;url" style="edgeLabel;html=1;align=center;verticalAlign=middle;resizable=0;points=[];" vertex="1" connectable="0" parent="v6ihOeDoag_4FhwwPe3u-41">
          <mxGeometry x="-0.2297" y="-2" relative="1" as="geometry">
            <mxPoint as="offset" />
          </mxGeometry>
        </mxCell>
        <mxCell id="v6ihOeDoag_4FhwwPe3u-77" style="edgeStyle=orthogonalEdgeStyle;rounded=0;orthogonalLoop=1;jettySize=auto;html=1;" edge="1" parent="1">
          <mxGeometry relative="1" as="geometry">
            <mxPoint x="-258" y="378" as="sourcePoint" />
            <mxPoint x="240" y="866" as="targetPoint" />
            <Array as="points">
              <mxPoint x="-258" y="378" />
              <mxPoint x="-258" y="866" />
            </Array>
          </mxGeometry>
        </mxCell>
        <mxCell id="v6ihOeDoag_4FhwwPe3u-40" value="Client" style="sketch=0;outlineConnect=0;fontColor=#232F3E;gradientColor=none;strokeColor=#232F3E;fillColor=#ffffff;dashed=0;verticalLabelPosition=bottom;verticalAlign=top;align=center;html=1;fontSize=12;fontStyle=0;aspect=fixed;shape=mxgraph.aws4.resourceIcon;resIcon=mxgraph.aws4.client;" vertex="1" parent="1">
          <mxGeometry x="-303" y="265" width="90" height="90" as="geometry" />
        </mxCell>
        <mxCell id="v6ihOeDoag_4FhwwPe3u-79" style="edgeStyle=orthogonalEdgeStyle;rounded=0;orthogonalLoop=1;jettySize=auto;html=1;entryX=1;entryY=0.75;entryDx=0;entryDy=0;" edge="1" parent="1" target="v6ihOeDoag_4FhwwPe3u-55">
          <mxGeometry relative="1" as="geometry">
            <mxPoint x="1210" y="440" as="sourcePoint" />
            <Array as="points">
              <mxPoint x="1210" y="868" />
            </Array>
          </mxGeometry>
        </mxCell>
        <mxCell id="v6ihOeDoag_4FhwwPe3u-42" value="Client" style="sketch=0;outlineConnect=0;fontColor=#232F3E;gradientColor=none;strokeColor=#232F3E;fillColor=#ffffff;dashed=0;verticalLabelPosition=bottom;verticalAlign=top;align=center;html=1;fontSize=12;fontStyle=0;aspect=fixed;shape=mxgraph.aws4.resourceIcon;resIcon=mxgraph.aws4.client;" vertex="1" parent="1">
          <mxGeometry x="1160" y="315" width="90" height="90" as="geometry" />
        </mxCell>
        <mxCell id="v6ihOeDoag_4FhwwPe3u-58" value="" style="group" vertex="1" connectable="0" parent="1">
          <mxGeometry x="241" y="740" width="240" height="170" as="geometry" />
        </mxCell>
        <mxCell id="v6ihOeDoag_4FhwwPe3u-83" style="edgeStyle=orthogonalEdgeStyle;rounded=0;orthogonalLoop=1;jettySize=auto;html=1;exitX=1;exitY=0.75;exitDx=0;exitDy=0;" edge="1" parent="v6ihOeDoag_4FhwwPe3u-58" source="v6ihOeDoag_4FhwwPe3u-55">
          <mxGeometry relative="1" as="geometry">
            <mxPoint x="969" y="-300" as="targetPoint" />
          </mxGeometry>
        </mxCell>
        <mxCell id="v6ihOeDoag_4FhwwPe3u-55" value="" style="rounded=0;whiteSpace=wrap;html=1;align=left;" vertex="1" parent="v6ihOeDoag_4FhwwPe3u-58">
          <mxGeometry width="240" height="170" as="geometry" />
        </mxCell>
        <mxCell id="v6ihOeDoag_4FhwwPe3u-56" value="" style="group" vertex="1" connectable="0" parent="v6ihOeDoag_4FhwwPe3u-58">
          <mxGeometry x="35" y="50" width="170" height="110" as="geometry" />
        </mxCell>
        <mxCell id="v6ihOeDoag_4FhwwPe3u-47" value="Amazon EC2" style="sketch=0;outlineConnect=0;fontColor=#232F3E;gradientColor=none;strokeColor=#ffffff;fillColor=#232F3E;dashed=0;verticalLabelPosition=middle;verticalAlign=bottom;align=center;html=1;whiteSpace=wrap;fontSize=10;fontStyle=1;spacing=3;shape=mxgraph.aws4.productIcon;prIcon=mxgraph.aws4.ec2;" vertex="1" parent="v6ihOeDoag_4FhwwPe3u-56">
          <mxGeometry y="4" width="80" height="100" as="geometry" />
        </mxCell>
        <mxCell id="v6ihOeDoag_4FhwwPe3u-52" value="" style="group" vertex="1" connectable="0" parent="v6ihOeDoag_4FhwwPe3u-56">
          <mxGeometry x="100" width="70" height="110" as="geometry" />
        </mxCell>
        <mxCell id="v6ihOeDoag_4FhwwPe3u-50" value="" style="shape=cylinder3;whiteSpace=wrap;html=1;boundedLbl=1;backgroundOutline=1;size=15;" vertex="1" parent="v6ihOeDoag_4FhwwPe3u-52">
          <mxGeometry x="10" width="50" height="70" as="geometry" />
        </mxCell>
        <mxCell id="v6ihOeDoag_4FhwwPe3u-51" value="mongodb&lt;br&gt;atlas" style="text;html=1;align=center;verticalAlign=middle;resizable=0;points=[];autosize=1;strokeColor=none;fillColor=none;" vertex="1" parent="v6ihOeDoag_4FhwwPe3u-52">
          <mxGeometry y="70" width="70" height="40" as="geometry" />
        </mxCell>
        <mxCell id="v6ihOeDoag_4FhwwPe3u-57" value="backend server" style="text;html=1;align=center;verticalAlign=middle;resizable=0;points=[];autosize=1;strokeColor=none;fillColor=none;" vertex="1" parent="v6ihOeDoag_4FhwwPe3u-58">
          <mxGeometry width="110" height="30" as="geometry" />
        </mxCell>
      </root>
    </mxGraphModel>
  </diagram>
</mxfile>
